<svg width="512" height="512" viewBox="0 0 1024 1024" xmlns="http://www.w3.org/2000/svg" preserveAspectRatio="xMidYMid meet"><svg x="394" y="442" width="627" height="145" xmlns="http://www.w3.org/2000/svg" preserveAspectRatio="none"><svg version="1.1" xmlns="http://www.w3.org/2000/svg" style="display: block;" width="627" height="145" viewBox="171.03 46.43 1705.36 395.30" preserveAspectRatio="none"><g id="svg-group-fb70875f-1d30-4dea-b8eb-88e188cd0cc1">
<path transform="translate(0,0)" fill="rgba(10, 49, 78, 1)" d="M 939.491 195.052 C 952.699 179.769 961.756 169.118 980.232 159.593 C 1008.28 145.133 1041.17 143.719 1071.02 153.31 C 1099.9 162.591 1123.04 184.773 1136.75 211.494 C 1142.23 222.181 1145.24 233.236 1146.81 245.112 C 1149.23 263.436 1151.56 404.344 1148.09 414.845 C 1145.09 423.941 1136.87 425.895 1129.2 429.768 C 1124.29 427.514 1114.92 423.856 1112.76 419.153 C 1106.94 406.524 1111.02 388.095 1111.1 374 L 1111.11 271.41 C 1111.15 225.038 1081.92 186.965 1033.62 187.231 C 1011.98 187.35 996.257 193.595 980.775 208.757 C 956.395 232.633 957.502 255.382 957.532 287.054 L 957.642 334.5 C 957.58 357.861 959.607 393.991 955.861 417.024 C 954.708 424.113 945.215 427.908 938.951 430.961 C 912.881 417.503 919.103 414.051 919.334 385.556 L 919.232 300.55 C 919.228 288.042 919.092 275.106 919.397 262.612 C 920.425 220.514 888.271 186.747 845.353 186.541 C 824.658 186.557 804.808 194.756 790.133 209.348 C 761.17 238.01 767.138 275.008 767.178 312.521 L 767.202 414.75 C 761.409 424.728 757.311 426.077 747.072 430.936 C 738.498 426.48 734.422 424.275 728.004 417.084 C 727.061 408.351 727.59 393.761 727.589 384.522 L 727.558 325.355 C 727.527 272.661 727.39 219.961 727.629 167.269 C 727.691 153.534 735.717 151.916 747.422 148.673 C 766.012 153.048 766.439 159.644 768.35 177.036 C 790.714 157.793 813.324 148.452 843.299 147.438 C 844.154 147.417 845.009 147.409 845.865 147.415 C 891.13 147.734 910.374 165.514 939.491 195.052 z"/>
<path transform="translate(0,0)" fill="rgba(10, 49, 78, 1)" d="M 1711.5 147.469 L 1712.97 147.469 C 1749.87 147.506 1785.19 162.431 1810.93 188.862 C 1827.89 206.012 1844.11 234.572 1848.43 258.265 C 1851.07 272.733 1850.07 300.315 1850.06 316.408 L 1849.91 418.524 C 1842.78 425.882 1838.71 427.054 1829.39 431.011 C 1822.68 427.198 1817.59 423.509 1812.15 418.076 C 1810.69 386.214 1812.45 351.925 1811.87 319.766 C 1811.61 305.126 1812.71 288.98 1810.74 274.552 C 1809.23 262.992 1805.78 251.77 1800.54 241.36 C 1789.36 219.718 1767.21 199.873 1743.76 192.4 C 1717.27 183.701 1688.4 186.06 1663.68 198.942 C 1636.24 213.174 1621.81 236.14 1612.87 264.309 C 1610.26 273.79 1610.1 289.211 1610.61 298.881 C 1611.99 325.323 1624.02 348.307 1643.92 365.602 C 1672.51 390.45 1703.46 392.878 1739.4 388.743 C 1747.03 388.201 1755.12 386.334 1762.69 386.1 C 1782.25 385.494 1784.38 407.635 1772.97 419.299 C 1771.11 421.202 1766.89 424.748 1764.28 425.145 C 1748.98 427.475 1733.2 428.581 1717.76 430.029 C 1635.03 431.584 1573.74 373.454 1570.86 293.89 C 1569.38 255.554 1583.45 218.246 1609.88 190.44 C 1635.92 162.54 1673.88 148.787 1711.5 147.469 z"/>
<path transform="translate(0,0)" fill="rgba(10, 49, 78, 1)" d="M 454.664 149.015 C 460.517 148.777 468.553 151.176 472.79 155.348 C 475.183 157.704 476.982 161.245 477.172 164.637 C 477.855 176.829 476.803 189.177 477.132 201.411 C 477.358 235.442 477.047 269.631 477.132 303.641 C 477.193 328.029 482.989 350.342 501.076 367.652 C 515.612 381.563 534.4 390.439 555.026 390.076 C 592.682 389.412 623.71 360.757 632.393 325.08 C 634.964 314.515 634.16 288.754 634.145 276.56 L 633.872 200.749 C 633.782 186.71 630.239 161.029 643.483 151.62 C 651.512 145.915 671.785 150.927 672.784 160.242 C 675.332 184.003 673.998 210.322 673.901 234.5 L 673.932 414.809 C 668.252 424.574 663.917 426.027 654.095 430.064 C 646.741 426.697 638 423.318 634.314 415.531 C 632.571 411.847 634.011 405.007 631.513 401.802 C 626.093 403.558 617.094 411.513 611.738 414.751 C 567.098 441.737 507.542 431.799 471.546 394.861 C 460.318 383.339 451.105 371.888 445.942 356.906 C 442.704 347.382 440.515 337.533 439.413 327.534 C 438.074 314.153 438.912 285.244 438.916 271.011 L 439.041 161.094 C 444.084 153.666 446.707 152.901 454.664 149.015 z"/>
<path transform="translate(0,0)" fill="rgba(10, 49, 78, 1)" d="M 1410.47 147.442 C 1427.04 146.963 1443.3 149.23 1458.88 155.011 C 1486.49 165.254 1509.66 189.019 1521.8 215.542 C 1527.51 228.003 1530.39 241.573 1531.83 255.147 C 1533.46 270.488 1534.8 406.66 1531.58 415.067 C 1528.16 423.987 1521.17 426.5 1513.08 430.159 C 1493.99 421.522 1492.45 419.012 1493.03 397.209 C 1493.21 390.436 1493.13 382.622 1493.15 375.748 L 1493.23 298.856 C 1493.25 262.367 1495.96 229.892 1463.47 203.266 C 1444.27 187.53 1423.12 185.804 1399.1 188.4 C 1380.24 193.541 1373.52 197.532 1359.34 210.767 C 1330.96 237.259 1336.22 273.172 1336.27 309.383 L 1336.2 384.165 C 1336.22 393.63 1337.62 409.142 1335.22 417.94 C 1333.48 424.287 1322.83 428.027 1316.96 430.589 C 1307.21 425.809 1304.09 424.085 1298.3 415.188 C 1297.7 401.912 1298.19 384.503 1298.19 370.958 L 1298.2 287.065 L 1298.16 213.92 C 1298.13 200.236 1297.95 186.543 1298.31 172.862 C 1298.73 156.737 1303.7 152.077 1319.11 149.012 C 1337.84 152.893 1337.8 159.065 1338.65 175.999 C 1360.2 158.47 1382.42 149.194 1410.47 147.442 z"/>
<path transform="translate(0,0)" fill="rgba(10, 49, 78, 1)" d="M 210.724 49.1207 C 212.15 49.0597 213.577 49.0135 215.004 48.9822 C 244.789 48.3655 237.955 76.1286 237.949 98.415 L 237.935 160.716 C 237.918 235.224 236.819 312.732 238.133 387.017 C 279.681 388.919 323.636 386.485 365.271 387.18 C 380.676 387.437 392.05 386.594 407.298 389.456 C 409.579 391.265 411.703 393.263 413.648 395.43 C 424.299 407.434 416.934 417.518 407.144 425.992 C 391.269 430.598 323.969 425.239 303.116 426.96 C 277.567 429.068 239.901 426.194 213.266 426.239 C 207.447 426.249 200.288 417.027 197.023 411.745 C 196.355 399.598 196.798 384.049 196.796 371.673 L 196.799 298.514 L 196.665 62.861 C 201.21 55.5769 203.874 53.9474 210.724 49.1207 z"/>
<path transform="translate(0,0)" fill="rgba(10, 49, 78, 1)" d="M 1218.95 149.075 C 1222.64 148.99 1226.88 149.143 1230.63 149.184 L 1230.93 149.421 C 1241.1 157.471 1242.45 160.588 1242.73 173.486 C 1242.98 184.943 1242.91 196.418 1242.92 207.877 L 1242.95 280.601 L 1242.96 364.32 C 1242.96 380.011 1243.28 395.844 1242.42 411.501 C 1241.89 421.266 1234.59 426.813 1225.32 427.669 C 1203.64 426.113 1202.94 417.299 1203.04 398.672 C 1203.15 379.804 1203.08 360.764 1203.1 341.887 L 1204.79 158.903 C 1209.34 154.058 1212.98 151.686 1218.95 149.075 z"/>
<path transform="translate(0,0)" fill="rgba(10, 49, 78, 1)" d="M 1220.52 46.4599 L 1220.98 46.4325 C 1224.06 48.4962 1230.13 49.6513 1233.93 50.5861 C 1242.68 58.3599 1244.15 62.8657 1246.71 73.6345 C 1242.42 88.0294 1238.69 94.425 1223.5 98.4029 C 1199.56 93.8974 1196 85.7763 1197.09 62.6456 C 1203.65 54.3932 1210.92 50.1653 1220.52 46.4599 z"/>
</g></svg></svg><svg x="4" y="276" width="306" height="473" xmlns="http://www.w3.org/2000/svg" preserveAspectRatio="none"><svg version="1.1" xmlns="http://www.w3.org/2000/svg" style="display: block;" width="306" height="473" viewBox="-0.16 2.80 1320.32 2045.20" preserveAspectRatio="none"><g id="svg-group-3894479d-6cd8-4904-8f76-163d0c0fce3a">
<path transform="translate(0,0)" fill="rgba(11, 48, 81, 1)" d="M 1047.04 2.80157 C 1054.03 4.43848 1066.28 6.66841 1069.77 13.2922 C 1076.6 26.2549 1079.86 45.4618 1083.87 59.5265 L 1118.37 182.818 L 1275.76 764.575 C 1288.66 811.342 1299.71 858.962 1312.93 905.671 C 1314.37 910.753 1316.1 918.404 1320 921.868 L 1320 941.839 C 1313.25 950.459 1307.32 965.253 1301.44 975.094 C 1290.45 993.507 1280.28 1012.58 1269.66 1031.12 L 1151.28 1233.85 L 1098.87 1321.36 C 1094.12 1329.2 1086.95 1338.88 1082.89 1346.63 C 1074.23 1363.14 1065.03 1378.31 1055.07 1394.05 C 1049.72 1402.5 1045.74 1413.11 1040.34 1421.78 L 788.594 1829.35 L 702.22 1968.85 C 684.589 1996.8 671.466 2025.17 647.401 2048 L 613.258 2048 C 572.055 2008.16 532.15 1966.57 491.338 1926.3 C 483.699 1918.76 477.011 1909.93 469.524 1902.18 C 420.062 1850.98 367.242 1802.66 319.643 1749.74 C 311.045 1740.19 300.75 1730.63 291.562 1721.44 L 129.641 1557.08 C 91.1725 1518.6 39.1739 1469.85 5.56507 1429.52 C 4.6004 1419.88 7.79975 1405.05 0 1398.58 L 0 550.709 C 0.181746 550.569 0.363493 550.43 0.545239 550.29 C 7.36082 542.97 6.25231 533.994 16.9883 527.987 C 32.9899 519.033 50.0663 511.749 66.1865 503.036 C 73.8159 498.912 81.2839 493.55 88.9569 489.41 C 144.672 459.351 200.082 430.234 257.078 402.597 C 276.42 393.219 295.886 383.164 314.793 372.936 C 319.78 370.237 327.062 368.226 332.361 365.545 L 699.326 178.073 C 783.36 134.645 867.743 91.894 952.466 49.8248 L 1013.7 19.1838 C 1022.11 14.9141 1038.85 5.43969 1047.04 2.80157 z M 567.614 641.448 C 574.33 635.619 578.704 629.305 584.37 622.544 C 612.984 588.401 638.443 551.936 665.301 516.42 C 755.734 398.181 844.304 278.528 930.98 157.507 C 947.801 134.104 966.035 111.513 982.007 87.4766 C 985.56 82.1295 993.848 71.3485 996.602 66.1969 C 996.13 63.6594 995.284 60.5593 994.666 57.9973 C 988.24 60.3966 982.13 64.9491 975.249 68.0584 C 950.4 79.2863 926.094 91.8248 901.716 104.081 L 704.389 204.443 C 669.919 222.405 636.825 238.178 602.54 255.449 L 354.515 381.632 L 168.237 475.956 C 134.59 493.232 98.1656 514.628 64.0008 530.251 C 64.2271 532.349 64.54 537.923 66.0651 538.241 C 87.4446 542.701 125.335 549.872 145.649 553.95 L 475.032 620.353 C 490.079 623.466 556.347 635.738 567.614 641.448 z M 1042.25 874.527 C 1033.51 889.548 1003.39 925.792 991.067 941.679 L 852.676 1121.39 C 843.104 1133.84 783.953 1207.48 782.329 1214.86 C 788.599 1224.74 817.933 1250.27 828.091 1259.53 C 839.689 1270.1 850.46 1281.94 861.932 1292.67 C 870.793 1300.96 880.168 1308.1 888.619 1317.12 C 890.498 1319.01 896.629 1325.41 898.225 1326.6 C 914.07 1338.47 990.626 1417.83 1002.5 1418.92 C 1003.45 1417.53 1005.91 1381.25 1006.36 1376.65 C 1022.4 1217.84 1035.44 1058.74 1045.47 899.437 C 1045.9 892.619 1047.63 885.89 1048.04 879.164 C 1048.2 876.386 1044.52 875.224 1042.25 874.527 z M 30.8351 574.404 C 33.643 674.348 29.259 776.145 31.0947 876.236 C 31.3656 891.008 31.3701 906.928 30.9792 921.692 C 31.027 929.75 31.7101 977.896 30.6975 982.809 L 40.999 982.664 C 45.912 980.151 62.8548 968.65 68.1458 965.257 L 134.624 922.218 L 359.117 775.6 C 400.909 748.232 442.513 720.577 483.925 692.637 C 496.689 684.104 509.245 675.784 522.673 668.34 C 524.513 667.32 524.083 662.145 524.195 659.892 C 521.822 657.293 513.599 657.66 509.713 656.886 C 500.172 654.987 490.728 652.76 481.244 650.605 C 411.228 635.254 341.005 620.863 270.595 607.436 C 206.768 594.803 143.087 580.615 79.2971 567.748 C 63.1532 564.492 46.1998 561.624 30.2511 557.742 L 30.8351 574.404 z M 759.94 1234.03 C 752.897 1248.02 717.756 1289.87 706.088 1304.99 L 582.517 1466.26 C 530.606 1535.86 478.071 1605 424.918 1673.66 C 416.332 1684.55 396.074 1715.5 388.506 1723 L 389.389 1729.64 C 395.507 1729.32 448.153 1705.81 456.823 1701.96 C 568.09 1652.5 678.132 1600.27 788.973 1549.86 C 834.333 1529.6 879.461 1508.81 924.346 1487.52 C 935.342 1482.4 988.09 1458.54 994.713 1452.64 L 994.316 1451.29 C 984.307 1444.67 978.578 1438.14 969.932 1430.09 L 929.914 1392.58 C 896.846 1361.72 864.968 1331.77 832.44 1300.24 C 808.974 1277.42 784.795 1255.33 759.94 1234.03 z"/>
<path transform="translate(0,0)" fill="rgba(196, 225, 27, 1)" d="M 1051.48 36.7239 C 1052.58 45.3142 1050.9 62.6684 1051.03 72.4685 C 1054.38 326.019 1048.51 580.346 1052.09 833.826 C 1029.99 843.389 990.837 869.145 968.654 881.45 C 888.969 925.521 809.575 970.116 730.478 1015.23 L 291.316 1264.16 L 132.28 1353.23 C 100.378 1370.76 70.7094 1385.25 39.0611 1404.07 L 37.308 1404.85 L 36.6256 1404.11 C 38.6754 1399.3 63.5177 1364.87 67.7266 1358.85 C 107.826 1301.59 151.371 1246.95 192.91 1190.61 L 824.728 350.713 C 838.752 332.011 851.496 313.507 865.208 294.838 L 996.029 116.237 C 1011 95.7192 1026.04 74.9765 1039.94 53.7163 C 1043.83 47.762 1046.8 42.1667 1051.48 36.7239 z"/>
<path transform="translate(0,0)" fill="rgba(0, 91, 119, 1)" d="M 30.9792 921.692 L 28.8809 930.485 C 25.9126 924.902 28.2605 597.028 28.4746 564.075 C 28.9123 568.403 29.1284 570.331 30.8351 574.404 C 33.643 674.348 29.259 776.145 31.0947 876.236 C 31.3656 891.008 31.3701 906.928 30.9792 921.692 z"/>
<path transform="translate(0,0)" fill="rgba(0, 139, 163, 1)" d="M 994.666 57.9973 L 993.642 57.3478 C 997.017 53.9967 1010.05 46.8263 1015.08 43.5417 C 1010.71 50.0858 1003.17 61.4085 997.451 66.7032 L 996.602 66.1969 C 996.13 63.6594 995.284 60.5593 994.666 57.9973 z"/>
<path transform="translate(0,0)" fill="rgba(1, 156, 156, 1)" d="M 388.506 1723 L 389.389 1729.64 C 390.462 1729.81 392.009 1730.29 393.104 1730.58 C 390.472 1734.39 376.155 1739.96 371.339 1742.05 C 375.253 1737.08 383.636 1726.4 388.506 1723 z"/>
<path transform="translate(0,0)" fill="rgba(0, 139, 163, 1)" d="M 30.6975 982.809 L 40.999 982.664 L 41.2555 984.255 C 37.7269 987.526 34.5221 990.87 29.6184 991.224 L 28.7197 989.467 C 29.3584 986.48 29.5331 985.602 30.6975 982.809 z"/>
</g></svg></svg></svg>